AkatabNeo-Black.ufo
<glyph name="dollar" format="2">
  <advance width="1112"/>
  <unicode hex="0024"/>
  <outline>
    <contour>
      <point x="519" y="-25" type="curve" smooth="yes"/>
      <point x="825" y="-25"/>
      <point x="985" y="149"/>
      <point x="985" y="394" type="curve" smooth="yes"/>
      <point x="985" y="783"/>
      <point x="426" y="787"/>
      <point x="426" y="981" type="curve" smooth="yes"/>
      <point x="426" y="1074"/>
      <point x="483" y="1120"/>
      <point x="578" y="1120" type="curve" smooth="yes"/>
      <point x="669" y="1120"/>
      <point x="747" y="1085"/>
      <point x="816" y="1017" type="curve"/>
      <point x="971" y="1184" type="line"/>
      <point x="871" y="1291"/>
      <point x="749" y="1365"/>
      <point x="569" y="1365" type="curve" smooth="yes"/>
      <point x="303" y="1365"/>
      <point x="135" y="1211"/>
      <point x="135" y="966" type="curve" smooth="yes"/>
      <point x="135" y="595"/>
      <point x="694" y="580"/>
      <point x="694" y="369" type="curve" smooth="yes"/>
      <point x="694" y="274"/>
      <point x="639" y="219"/>
      <point x="519" y="219" type="curve" smooth="yes"/>
      <point x="417" y="219"/>
      <point x="322" y="251"/>
      <point x="219" y="337" type="curve"/>
      <point x="82" y="149" type="line"/>
      <point x="200" y="29"/>
      <point x="360" y="-25"/>
    </contour>
    <contour>
      <point x="453" y="-232" type="line"/>
      <point x="656" y="-232" type="line"/>
      <point x="656" y="99" type="line"/>
      <point x="453" y="99" type="line"/>
    </contour>
    <contour>
      <point x="453" y="1270" type="line"/>
      <point x="656" y="1270" type="line"/>
      <point x="656" y="1572" type="line"/>
      <point x="453" y="1572" type="line"/>
    </contour>
  </outline>
</glyph>
<glyph name="quotesingle" format="2">
  <advance width="629"/>
  <unicode hex="0027"/>
  <outline>
    <contour>
      <point x="230" y="753" type="line"/>
      <point x="396" y="753" type="line"/>
      <point x="458" y="1171" type="line"/>
      <point x="468" y="1448" type="line"/>
      <point x="160" y="1448" type="line"/>
      <point x="170" y="1171" type="line"/>
    </contour>
  </outline>
</glyph>
<glyph name="two" format="2">
  <advance width="1112"/>
  <unicode hex="0032"/>
  <outline>
    <contour>
      <point x="78" y="0" type="line"/>
      <point x="1017" y="0" type="line"/>
      <point x="1017" y="255" type="line"/>
      <point x="715" y="255" type="line" smooth="yes"/>
      <point x="652" y="255"/>
      <point x="559" y="249"/>
      <point x="489" y="240" type="curve"/>
      <point x="732" y="479"/>
      <point x="954" y="700"/>
      <point x="954" y="943" type="curve" smooth="yes"/>
      <point x="954" y="1199"/>
      <point x="774" y="1365"/>
      <point x="510" y="1365" type="curve" smooth="yes"/>
      <point x="322" y="1365"/>
      <point x="198" y="1291"/>
      <point x="71" y="1148" type="curve"/>
      <point x="230" y="990" type="line"/>
      <point x="297" y="1061"/>
      <point x="373" y="1127"/>
      <point x="468" y="1127" type="curve" smooth="yes"/>
      <point x="588" y="1127"/>
      <point x="662" y="1053"/>
      <point x="662" y="922" type="curve" smooth="yes"/>
      <point x="662" y="734"/>
      <point x="420" y="493"/>
      <point x="78" y="187" type="curve"/>
    </contour>
  </outline>
</glyph>
<glyph name="five" format="2">
  <advance width="1112"/>
  <unicode hex="0035"/>
  <outline>
    <contour>
      <point x="521" y="-25" type="curve" smooth="yes"/>
      <point x="781" y="-25"/>
      <point x="1011" y="145"/>
      <point x="1011" y="443" type="curve" smooth="yes"/>
      <point x="1011" y="728"/>
      <point x="814" y="859"/>
      <point x="584" y="859" type="curve" smooth="yes"/>
      <point x="527" y="859"/>
      <point x="483" y="848"/>
      <point x="432" y="827" type="curve"/>
      <point x="455" y="1085" type="line"/>
      <point x="947" y="1085" type="line"/>
      <point x="947" y="1340" type="line"/>
      <point x="192" y="1340" type="line"/>
      <point x="156" y="664" type="line"/>
      <point x="291" y="576" type="line"/>
      <point x="371" y="629"/>
      <point x="413" y="645"/>
      <point x="491" y="645" type="curve" smooth="yes"/>
      <point x="618" y="645"/>
      <point x="705" y="572"/>
      <point x="705" y="434" type="curve" smooth="yes"/>
      <point x="705" y="295"/>
      <point x="614" y="219"/>
      <point x="477" y="219" type="curve" smooth="yes"/>
      <point x="360" y="219"/>
      <point x="265" y="280"/>
      <point x="185" y="354" type="curve"/>
      <point x="48" y="162" type="line"/>
      <point x="151" y="59"/>
      <point x="301" y="-25"/>
    </contour>
  </outline>
</glyph>
<glyph name="six" format="2">
  <advance width="1112"/>
  <unicode hex="0036"/>
  <outline>
    <contour>
      <point x="593" y="-25" type="curve" smooth="yes"/>
      <point x="833" y="-25"/>
      <point x="1036" y="145"/>
      <point x="1036" y="422" type="curve" smooth="yes"/>
      <point x="1036" y="707"/>
      <point x="867" y="838"/>
      <point x="637" y="838" type="curve" smooth="yes"/>
      <point x="548" y="838"/>
      <point x="422" y="778"/>
      <point x="352" y="675" type="curve"/>
      <point x="367" y="474" type="line"/>
      <point x="428" y="582"/>
      <point x="508" y="622"/>
      <point x="578" y="622" type="curve" smooth="yes"/>
      <point x="681" y="622"/>
      <point x="757" y="565"/>
      <point x="757" y="422" type="curve" smooth="yes"/>
      <point x="757" y="270"/>
      <point x="679" y="202"/>
      <point x="586" y="202" type="curve" smooth="yes"/>
      <point x="468" y="202"/>
      <point x="365" y="306"/>
      <point x="365" y="637" type="curve" smooth="yes"/>
      <point x="365" y="1000"/>
      <point x="489" y="1120"/>
      <point x="648" y="1120" type="curve" smooth="yes"/>
      <point x="726" y="1120"/>
      <point x="808" y="1076"/>
      <point x="854" y="1023" type="curve"/>
      <point x="1017" y="1205" type="line"/>
      <point x="930" y="1291"/>
      <point x="804" y="1365"/>
      <point x="626" y="1365" type="curve" smooth="yes"/>
      <point x="346" y="1365"/>
      <point x="86" y="1142"/>
      <point x="86" y="637" type="curve" smooth="yes"/>
      <point x="86" y="168"/>
      <point x="331" y="-25"/>
    </contour>
  </outline>
</glyph>
<glyph name="less" format="2">
  <advance width="1112"/>
  <unicode hex="003C"/>
  <outline>
    <contour>
      <point x="1040" y="221" type="line"/>
      <point x="1040" y="472" type="line"/>
      <point x="664" y="597" type="line"/>
      <point x="379" y="696" type="line"/>
      <point x="379" y="705" type="line"/>
      <point x="664" y="804" type="line"/>
      <point x="1040" y="928" type="line"/>
      <point x="1040" y="1180" type="line"/>
      <point x="71" y="806" type="line"/>
      <point x="71" y="595" type="line"/>
    </contour>
  </outline>
</glyph>
<glyph name="greater" format="2">
  <advance width="1112"/>
  <unicode hex="003E"/>
  <outline>
    <contour>
      <point x="71" y="221" type="line"/>
      <point x="1040" y="595" type="line"/>
      <point x="1040" y="806" type="line"/>
      <point x="71" y="1180" type="line"/>
      <point x="71" y="928" type="line"/>
      <point x="445" y="804" type="line"/>
      <point x="732" y="705" type="line"/>
      <point x="732" y="696" type="line"/>
      <point x="445" y="597" type="line"/>
      <point x="71" y="472" type="line"/>
    </contour>
  </outline>
</glyph>
<glyph name="question" format="2">
  <advance width="975"/>
  <unicode hex="003F"/>
  <outline>
    <contour>
      <point x="325" y="485" type="curve"/>
      <point x="591" y="485" type="line"/>
      <point x="565" y="736"/>
      <point x="884" y="819"/>
      <point x="884" y="1078" type="curve" smooth="yes"/>
      <point x="884" y="1325"/>
      <point x="713" y="1439"/>
      <point x="487" y="1439" type="curve" smooth="yes"/>
      <point x="322" y="1439"/>
      <point x="185" y="1361"/>
      <point x="86" y="1249" type="curve"/>
      <point x="253" y="1095" type="line"/>
      <point x="312" y="1152"/>
      <point x="369" y="1194"/>
      <point x="449" y="1194" type="curve" smooth="yes"/>
      <point x="534" y="1194"/>
      <point x="593" y="1146"/>
      <point x="593" y="1057" type="curve" smooth="yes"/>
      <point x="593" y="895"/>
      <point x="282" y="776"/>
    </contour>
    <contour>
      <point x="458" y="-25" type="curve" smooth="yes"/>
      <point x="565" y="-25"/>
      <point x="643" y="59"/>
      <point x="643" y="166" type="curve" smooth="yes"/>
      <point x="643" y="276"/>
      <point x="565" y="360"/>
      <point x="458" y="360" type="curve" smooth="yes"/>
      <point x="352" y="360"/>
      <point x="274" y="276"/>
      <point x="274" y="166" type="curve" smooth="yes"/>
      <point x="274" y="59"/>
      <point x="352" y="-25"/>
    </contour>
  </outline>
</glyph>
<glyph name="B" format="2">
  <advance width="1277"/>
  <unicode hex="0042"/>
  <anchor x="631" y="1422" name="aboveUC"/>
  <anchor x="664" y="-46" name="belowLC"/>
  <outline>
    <contour>
      <point x="162" y="0" type="line"/>
      <point x="671" y="0" type="line" smooth="yes"/>
      <point x="971" y="0"/>
      <point x="1205" y="126"/>
      <point x="1205" y="405" type="curve" smooth="yes"/>
      <point x="1205" y="588"/>
      <point x="1097" y="692"/>
      <point x="956" y="730" type="curve"/>
      <point x="956" y="738" type="line"/>
      <point x="1068" y="781"/>
      <point x="1137" y="911"/>
      <point x="1137" y="1034" type="curve" smooth="yes"/>
      <point x="1137" y="1296"/>
      <point x="918" y="1376"/>
      <point x="631" y="1376" type="curve" smooth="yes"/>
      <point x="162" y="1376" type="line"/>
    </contour>
    <contour>
      <point x="468" y="823" type="line"/>
      <point x="468" y="1139" type="line"/>
      <point x="618" y="1139" type="line" smooth="yes"/>
      <point x="766" y="1139"/>
      <point x="840" y="1097"/>
      <point x="840" y="990" type="curve" smooth="yes"/>
      <point x="840" y="888"/>
      <point x="770" y="823"/>
      <point x="616" y="823" type="curve" smooth="yes"/>
    </contour>
    <contour>
      <point x="468" y="236" type="line"/>
      <point x="468" y="597" type="line"/>
      <point x="645" y="597" type="line" smooth="yes"/>
      <point x="819" y="597"/>
      <point x="907" y="546"/>
      <point x="907" y="424" type="curve" smooth="yes"/>
      <point x="907" y="297"/>
      <point x="816" y="236"/>
      <point x="645" y="236" type="curve" smooth="yes"/>
    </contour>
  </outline>
</glyph>
<glyph name="L" format="2">
  <advance width="1089"/>
  <unicode hex="004C"/>
  <anchor x="318" y="1422" name="aboveUC"/>
  <anchor x="612" y="-46" name="belowLC"/>
  <outline>
    <contour>
      <point x="162" y="0" type="line"/>
      <point x="1015" y="0" type="line"/>
      <point x="1015" y="255" type="line"/>
      <point x="468" y="255" type="line"/>
      <point x="468" y="1376" type="line"/>
      <point x="162" y="1376" type="line"/>
    </contour>
  </outline>
</glyph>
<glyph name="N" format="2">
  <advance width="1401"/>
  <unicode hex="004E"/>
  <anchor x="713" y="1422" name="aboveUC"/>
  <anchor x="726" y="-46" name="belowLC"/>
  <outline>
    <contour>
      <point x="162" y="0" type="line"/>
      <point x="453" y="0" type="line"/>
      <point x="453" y="498" type="line" smooth="yes"/>
      <point x="453" y="660"/>
      <point x="430" y="842"/>
      <point x="415" y="994" type="curve"/>
      <point x="424" y="994" type="line"/>
      <point x="468" y="890"/>
      <point x="512" y="785"/>
      <point x="559" y="692" type="curve" smooth="yes"/>
      <point x="926" y="0" type="line"/>
      <point x="1239" y="0" type="line"/>
      <point x="1239" y="1376" type="line"/>
      <point x="947" y="1376" type="line"/>
      <point x="947" y="880" type="line" smooth="yes"/>
      <point x="947" y="717"/>
      <point x="973" y="527"/>
      <point x="985" y="382" type="curve"/>
      <point x="977" y="382" type="line"/>
      <point x="935" y="485"/>
      <point x="888" y="591"/>
      <point x="842" y="683" type="curve" smooth="yes"/>
      <point x="477" y="1376" type="line"/>
      <point x="162" y="1376" type="line"/>
    </contour>
  </outline>
</glyph>
<glyph name="P" format="2">
  <advance width="1256"/>
  <unicode hex="0050"/>
  <anchor x="664" y="1422" name="aboveUC"/>
  <anchor x="337" y="-46" name="belowLC"/>
  <outline>
    <contour>
      <point x="162" y="0" type="line"/>
      <point x="468" y="0" type="line"/>
      <point x="468" y="470" type="line"/>
      <point x="641" y="470" type="line" smooth="yes"/>
      <point x="933" y="470"/>
      <point x="1177" y="612"/>
      <point x="1177" y="935" type="curve" smooth="yes"/>
      <point x="1177" y="1268"/>
      <point x="935" y="1376"/>
      <point x="633" y="1376" type="curve" smooth="yes"/>
      <point x="162" y="1376" type="line"/>
    </contour>
    <contour>
      <point x="468" y="713" type="line"/>
      <point x="468" y="1133" type="line"/>
      <point x="614" y="1133" type="line" smooth="yes"/>
      <point x="785" y="1133"/>
      <point x="880" y="1080"/>
      <point x="880" y="935" type="curve" smooth="yes"/>
      <point x="880" y="789"/>
      <point x="797" y="713"/>
      <point x="622" y="713" type="curve" smooth="yes"/>
    </contour>
  </outline>
</glyph>
<glyph name="S" format="2">
  <advance width="1171"/>
  <unicode hex="0053"/>
  <anchor x="620" y="1422" name="aboveUC"/>
  <anchor x="588" y="0" name="baseLC"/>
  <anchor x="588" y="-46" name="belowLC"/>
  <outline>
    <contour>
      <point x="582" y="-25" type="curve" smooth="yes"/>
      <point x="909" y="-25"/>
      <point x="1099" y="170"/>
      <point x="1099" y="398" type="curve" smooth="yes"/>
      <point x="1099" y="595"/>
      <point x="994" y="705"/>
      <point x="825" y="774" type="curve" smooth="yes"/>
      <point x="650" y="844" type="line" smooth="yes"/>
      <point x="529" y="892"/>
      <point x="439" y="924"/>
      <point x="439" y="1011" type="curve" smooth="yes"/>
      <point x="439" y="1091"/>
      <point x="508" y="1137"/>
      <point x="618" y="1137" type="curve" smooth="yes"/>
      <point x="709" y="1137"/>
      <point x="806" y="1099"/>
      <point x="897" y="1030" type="curve"/>
      <point x="1057" y="1230" type="line"/>
      <point x="943" y="1338"/>
      <point x="783" y="1401"/>
      <point x="618" y="1401" type="curve" smooth="yes"/>
      <point x="333" y="1401"/>
      <point x="128" y="1220"/>
      <point x="128" y="994" type="curve" smooth="yes"/>
      <point x="128" y="793"/>
      <point x="265" y="677"/>
      <point x="407" y="618" type="curve" smooth="yes"/>
      <point x="586" y="542" type="line" smooth="yes"/>
      <point x="707" y="491"/>
      <point x="787" y="464"/>
      <point x="787" y="375" type="curve" smooth="yes"/>
      <point x="787" y="291"/>
      <point x="721" y="238"/>
      <point x="588" y="238" type="curve" smooth="yes"/>
      <point x="468" y="238"/>
      <point x="333" y="287"/>
      <point x="236" y="375" type="curve"/>
      <point x="73" y="175" type="line"/>
      <point x="213" y="40"/>
      <point x="396" y="-25"/>
    </contour>
  </outline>
</glyph>
<glyph name="Z" format="2">
  <advance width="1142"/>
  <unicode hex="005A"/>
  <anchor x="597" y="1422" name="aboveUC"/>
  <anchor x="595" y="-46" name="belowLC"/>
  <outline>
    <contour>
      <point x="75" y="0" type="line"/>
      <point x="1070" y="0" type="line"/>
      <point x="1070" y="255" type="line"/>
      <point x="451" y="255" type="line"/>
      <point x="1066" y="1192" type="line"/>
      <point x="1066" y="1376" type="line"/>
      <point x="132" y="1376" type="line"/>
      <point x="132" y="1120" type="line"/>
      <point x="690" y="1120" type="line"/>
      <point x="75" y="183" type="line"/>
    </contour>
  </outline>
</glyph>
<glyph name="backslash" format="2">
  <advance width="715"/>
  <unicode hex="005C"/>
  <outline>
    <contour>
      <point x="489" y="-337" type="line"/>
      <point x="688" y="-337" type="line"/>
      <point x="257" y="1498" type="line"/>
      <point x="59" y="1498" type="line"/>
    </contour>
  </outline>
</glyph>
<glyph name="a" format="2">
  <advance width="1110"/>
  <unicode hex="0061"/>
  <anchor x="582" y="1093" name="aboveLC"/>
  <anchor x="540" y="-46" name="belowLC"/>
  <anchor x="791" y="0" name="ogonekLC"/>
  <outline>
    <contour>
      <point x="401" y="-25" type="curve" smooth="yes"/>
      <point x="519" y="-25"/>
      <point x="618" y="29"/>
      <point x="707" y="107" type="curve"/>
      <point x="715" y="107" type="line"/>
      <point x="736" y="0" type="line"/>
      <point x="985" y="0" type="line"/>
      <point x="985" y="599" type="line" smooth="yes"/>
      <point x="985" y="918"/>
      <point x="838" y="1072"/>
      <point x="572" y="1072" type="curve" smooth="yes"/>
      <point x="407" y="1072"/>
      <point x="257" y="1015"/>
      <point x="126" y="933" type="curve"/>
      <point x="234" y="738" type="line"/>
      <point x="335" y="795"/>
      <point x="424" y="829"/>
      <point x="512" y="829" type="curve" smooth="yes"/>
      <point x="629" y="829"/>
      <point x="675" y="766"/>
      <point x="681" y="673" type="curve"/>
      <point x="265" y="629"/>
      <point x="88" y="510"/>
      <point x="88" y="289" type="curve" smooth="yes"/>
      <point x="88" y="111"/>
      <point x="211" y="-25"/>
    </contour>
    <contour>
      <point x="504" y="211" type="curve" smooth="yes"/>
      <point x="428" y="211"/>
      <point x="379" y="244"/>
      <point x="379" y="314" type="curve" smooth="yes"/>
      <point x="379" y="394"/>
      <point x="453" y="458"/>
      <point x="681" y="489" type="curve"/>
      <point x="681" y="301" type="line"/>
      <point x="624" y="244"/>
      <point x="574" y="211"/>
    </contour>
  </outline>
</glyph>
<glyph name="h" format="2">
  <advance width="1203"/>
  <unicode hex="0068"/>
  <anchor x="658" y="1524" name="aboveUC"/>
  <anchor x="624" y="-46" name="belowLC"/>
  <outline>
    <contour>
      <point x="137" y="0" type="line"/>
      <point x="443" y="0" type="line"/>
      <point x="443" y="707" type="line"/>
      <point x="512" y="774"/>
      <point x="561" y="812"/>
      <point x="639" y="812" type="curve" smooth="yes"/>
      <point x="732" y="812"/>
      <point x="772" y="764"/>
      <point x="772" y="612" type="curve" smooth="yes"/>
      <point x="772" y="0" type="line"/>
      <point x="1076" y="0" type="line"/>
      <point x="1076" y="650" type="line" smooth="yes"/>
      <point x="1076" y="911"/>
      <point x="979" y="1072"/>
      <point x="753" y="1072" type="curve" smooth="yes"/>
      <point x="610" y="1072"/>
      <point x="508" y="998"/>
      <point x="428" y="926" type="curve"/>
      <point x="443" y="1116" type="line"/>
      <point x="443" y="1479" type="line"/>
      <point x="137" y="1479" type="line"/>
    </contour>
  </outline>
</glyph>
<glyph name="l" format="2">
  <advance width="601"/>
  <unicode hex="006C"/>
  <anchor x="299" y="1524" name="aboveUC"/>
  <anchor x="341" y="-46" name="belowLC"/>
  <outline>
    <contour>
      <point x="420" y="-25" type="curve" smooth="yes"/>
      <point x="487" y="-25"/>
      <point x="538" y="-14"/>
      <point x="572" y="0" type="curve"/>
      <point x="536" y="223" type="line"/>
      <point x="519" y="219"/>
      <point x="510" y="219"/>
      <point x="498" y="219" type="curve" smooth="yes"/>
      <point x="472" y="219"/>
      <point x="443" y="240"/>
      <point x="443" y="308" type="curve" smooth="yes"/>
      <point x="443" y="1479" type="line"/>
      <point x="137" y="1479" type="line"/>
      <point x="137" y="320" type="line" smooth="yes"/>
      <point x="137" y="111"/>
      <point x="211" y="-25"/>
    </contour>
  </outline>
</glyph>
<glyph name="q" format="2">
  <advance width="1207"/>
  <unicode hex="0071"/>
  <anchor x="616" y="1093" name="aboveLC"/>
  <anchor x="903" y="-392" name="belowLC"/>
  <outline>
    <contour>
      <point x="766" y="-390" type="line"/>
      <point x="1070" y="-390" type="line"/>
      <point x="1070" y="1047" type="line"/>
      <point x="831" y="1047" type="line"/>
      <point x="806" y="943" type="line"/>
      <point x="797" y="943" type="line"/>
      <point x="715" y="1032"/>
      <point x="631" y="1072"/>
      <point x="517" y="1072" type="curve" smooth="yes"/>
      <point x="297" y="1072"/>
      <point x="84" y="865"/>
      <point x="84" y="523" type="curve" smooth="yes"/>
      <point x="84" y="181"/>
      <point x="251" y="-25"/>
      <point x="510" y="-25" type="curve" smooth="yes"/>
      <point x="605" y="-25"/>
      <point x="707" y="23"/>
      <point x="776" y="90" type="curve"/>
      <point x="766" y="-69" type="line"/>
    </contour>
    <contour>
      <point x="591" y="223" type="curve" smooth="yes"/>
      <point x="468" y="223"/>
      <point x="394" y="318"/>
      <point x="394" y="525" type="curve" smooth="yes"/>
      <point x="394" y="726"/>
      <point x="485" y="823"/>
      <point x="588" y="823" type="curve" smooth="yes"/>
      <point x="645" y="823"/>
      <point x="709" y="804"/>
      <point x="766" y="753" type="curve"/>
      <point x="766" y="318" type="line"/>
      <point x="711" y="249"/>
      <point x="658" y="223"/>
    </contour>
  </outline>
</glyph>
<glyph name="exclamdown" format="2">
  <advance width="713"/>
  <unicode hex="00A1"/>
  <outline>
    <contour>
      <point x="204" y="-367" type="line"/>
      <point x="508" y="-367" type="line"/>
      <point x="498" y="-90" type="line"/>
      <point x="455" y="561" type="line"/>
      <point x="257" y="561" type="line"/>
      <point x="215" y="-90" type="line"/>
    </contour>
    <contour>
      <point x="356" y="686" type="curve" smooth="yes"/>
      <point x="462" y="686"/>
      <point x="540" y="770"/>
      <point x="540" y="880" type="curve" smooth="yes"/>
      <point x="540" y="987"/>
      <point x="462" y="1072"/>
      <point x="356" y="1072" type="curve" smooth="yes"/>
      <point x="251" y="1072"/>
      <point x="173" y="987"/>
      <point x="173" y="880" type="curve" smooth="yes"/>
      <point x="173" y="770"/>
      <point x="251" y="686"/>
    </contour>
  </outline>
</glyph>
<glyph name="brokenbar" format="2">
  <advance width="563"/>
  <unicode hex="00A6"/>
  <outline>
    <contour>
      <point x="181" y="656" type="line"/>
      <point x="379" y="656" type="line"/>
      <point x="379" y="1583" type="line"/>
      <point x="181" y="1583" type="line"/>
    </contour>
    <contour>
      <point x="181" y="-527" type="line"/>
      <point x="379" y="-527" type="line"/>
      <point x="379" y="430" type="line"/>
      <point x="181" y="430" type="line"/>
    </contour>
  </outline>
</glyph>
<glyph name="Oslash" format="2">
  <advance width="1441"/>
  <unicode hex="00D8"/>
  <anchor x="736" y="1422" name="aboveUC"/>
  <outline>
    <component base="O" xOffset="2"/>
    <contour>
      <point x="242" y="-86" type="line"/>
      <point x="1389" y="1340" type="line"/>
      <point x="1230" y="1462" type="line"/>
      <point x="84" y="35" type="line"/>
    </contour>
  </outline>
</glyph>
<glyph name="ae" format="2">
  <advance width="1648"/>
  <unicode hex="00E6"/>
  <anchor x="857" y="1093" name="aboveLC"/>
  <anchor x="852" y="-46" name="belowLC"/>
  <outline>
    <contour>
      <point x="401" y="-25" type="curve" smooth="yes"/>
      <point x="540" y="-25"/>
      <point x="656" y="21"/>
      <point x="804" y="139" type="curve"/>
      <point x="890" y="42"/>
      <point x="1009" y="-25"/>
      <point x="1163" y="-25" type="curve" smooth="yes"/>
      <point x="1289" y="-25"/>
      <point x="1427" y="16"/>
      <point x="1532" y="92" type="curve"/>
      <point x="1435" y="274" type="line"/>
      <point x="1359" y="230"/>
      <point x="1285" y="206"/>
      <point x="1205" y="206" type="curve" smooth="yes"/>
      <point x="1074" y="206"/>
      <point x="971" y="289"/>
      <point x="952" y="436" type="curve"/>
      <point x="1560" y="436" type="line"/>
      <point x="1564" y="462"/>
      <point x="1570" y="508"/>
      <point x="1570" y="563" type="curve" smooth="yes"/>
      <point x="1570" y="848"/>
      <point x="1431" y="1072"/>
      <point x="1156" y="1072" type="curve" smooth="yes"/>
      <point x="1030" y="1072"/>
      <point x="933" y="1013"/>
      <point x="844" y="911" type="curve"/>
      <point x="785" y="1011"/>
      <point x="683" y="1072"/>
      <point x="553" y="1072" type="curve" smooth="yes"/>
      <point x="401" y="1072"/>
      <point x="257" y="1015"/>
      <point x="126" y="933" type="curve"/>
      <point x="234" y="738" type="line"/>
      <point x="335" y="795"/>
      <point x="424" y="829"/>
      <point x="510" y="829" type="curve" smooth="yes"/>
      <point x="629" y="829"/>
      <point x="669" y="764"/>
      <point x="675" y="673" type="curve"/>
      <point x="265" y="629"/>
      <point x="88" y="510"/>
      <point x="88" y="289" type="curve" smooth="yes"/>
      <point x="88" y="111"/>
      <point x="211" y="-25"/>
    </contour>
    <contour>
      <point x="504" y="211" type="curve" smooth="yes"/>
      <point x="428" y="211"/>
      <point x="379" y="244"/>
      <point x="379" y="314" type="curve" smooth="yes"/>
      <point x="379" y="396"/>
      <point x="462" y="458"/>
      <point x="671" y="489" type="curve"/>
      <point x="675" y="445" type="line" smooth="yes"/>
      <point x="677" y="396"/>
      <point x="688" y="346"/>
      <point x="705" y="301" type="curve"/>
      <point x="645" y="244"/>
      <point x="574" y="211"/>
    </contour>
    <contour>
      <point x="952" y="631" type="line"/>
      <point x="973" y="764"/>
      <point x="1047" y="840"/>
      <point x="1146" y="840" type="curve" smooth="yes"/>
      <point x="1247" y="840"/>
      <point x="1310" y="764"/>
      <point x="1310" y="631" type="curve"/>
    </contour>
  </outline>
</glyph>
<glyph name="uni0194" format="2">
  <advance width="1104"/>
  <unicode hex="0194"/>
  <anchor x="550" y="1422" name="aboveUC"/>
  <anchor x="555" y="-46" name="belowLC"/>
  <outline>
    <contour>
      <point x="555" y="-25" type="curve" smooth="yes"/>
      <point x="761" y="-25"/>
      <point x="898" y="95"/>
      <point x="898" y="281" type="curve" smooth="yes"/>
      <point x="898" y="395"/>
      <point x="839" y="498"/>
      <point x="719" y="666" type="curve"/>
      <point x="719" y="536" type="line"/>
      <point x="1118" y="1376" type="line"/>
      <point x="800" y="1376" type="line"/>
      <point x="675" y="1067" type="line"/>
      <point x="640" y="976"/>
      <point x="592" y="867"/>
      <point x="557" y="772" type="curve"/>
      <point x="548" y="772" type="line"/>
      <point x="514" y="867"/>
      <point x="470" y="976"/>
      <point x="436" y="1067" type="curve"/>
      <point x="310" y="1376" type="line"/>
      <point x="-14" y="1376" type="line"/>
      <point x="388" y="536" type="line"/>
      <point x="388" y="666" type="line"/>
      <point x="272" y="502"/>
      <point x="214" y="395"/>
      <point x="214" y="281" type="curve" smooth="yes"/>
      <point x="214" y="95"/>
      <point x="348" y="-25"/>
    </contour>
    <contour>
      <point x="555" y="175" type="curve" smooth="yes"/>
      <point x="490" y="175"/>
      <point x="461" y="221"/>
      <point x="461" y="276" type="curve" smooth="yes"/>
      <point x="461" y="335"/>
      <point x="492" y="400"/>
      <point x="548" y="472" type="curve"/>
      <point x="559" y="472" type="line"/>
      <point x="620" y="400"/>
      <point x="651" y="335"/>
      <point x="651" y="276" type="curve" smooth="yes"/>
      <point x="651" y="221"/>
      <point x="621" y="175"/>
    </contour>
  </outline>
</glyph>
<glyph name="cedillacmb" format="2">
  <unicode hex="0327"/>
  <anchor x="0" y="0" name="_baseLC"/>
  <outline>
    <contour>
      <point x="-213" y="-504" type="line"/>
      <point x="46" y="-493"/>
      <point x="200" y="-428"/>
      <point x="200" y="-287" type="curve" smooth="yes"/>
      <point x="200" y="-198"/>
      <point x="143" y="-154"/>
      <point x="37" y="-128" type="curve"/>
      <point x="99" y="8" type="line"/>
      <point x="-80" y="8" type="line"/>
      <point x="-181" y="-198" type="line"/>
      <point x="-52" y="-215"/>
      <point x="-18" y="-244"/>
      <point x="-18" y="-287" type="curve" smooth="yes"/>
      <point x="-18" y="-346"/>
      <point x="-71" y="-371"/>
      <point x="-236" y="-379" type="curve"/>
    </contour>
  </outline>
</glyph>
<glyph name="pi" format="2">
  <advance width="1336"/>
  <unicode hex="03C0"/>
  <outline>
    <contour>
      <point x="1097" y="-25" type="curve" smooth="yes"/>
      <point x="1175" y="-25"/>
      <point x="1245" y="-10"/>
      <point x="1285" y="4" type="curve"/>
      <point x="1247" y="230" type="line"/>
      <point x="1218" y="223"/>
      <point x="1190" y="219"/>
      <point x="1169" y="219" type="curve" smooth="yes"/>
      <point x="1110" y="219"/>
      <point x="1076" y="244"/>
      <point x="1076" y="316" type="curve" smooth="yes"/>
      <point x="1076" y="367"/>
      <point x="1076" y="620"/>
      <point x="1089" y="806" type="curve"/>
      <point x="1287" y="806" type="line"/>
      <point x="1287" y="1047" type="line"/>
      <point x="194" y="1047" type="line"/>
      <point x="37" y="1034" type="line"/>
      <point x="37" y="806" type="line"/>
      <point x="265" y="806" type="line"/>
      <point x="265" y="572"/>
      <point x="240" y="282"/>
      <point x="189" y="0" type="curve"/>
      <point x="496" y="-16" type="line"/>
      <point x="523" y="257"/>
      <point x="550" y="555"/>
      <point x="550" y="806" type="curve"/>
      <point x="800" y="806" type="line"/>
      <point x="797" y="629"/>
      <point x="789" y="392"/>
      <point x="789" y="329" type="curve" smooth="yes"/>
      <point x="789" y="113"/>
      <point x="867" y="-25"/>
    </contour>
  </outline>
</glyph>
<glyph name="emdash" format="2">
  <advance width="1688"/>
  <unicode hex="2014"/>
  <outline>
    <contour>
      <point x="90" y="436" type="line"/>
      <point x="1598" y="436" type="line"/>
      <point x="1598" y="631" type="line"/>
      <point x="90" y="631" type="line"/>
    </contour>
  </outline>
</glyph>
<glyph name="quoteright" format="2">
  <advance width="629"/>
  <unicode hex="2019"/>
  <outline>
    <contour>
      <point x="217" y="751" type="line"/>
      <point x="415" y="850"/>
      <point x="512" y="1000"/>
      <point x="512" y="1199" type="curve" smooth="yes"/>
      <point x="512" y="1370"/>
      <point x="445" y="1471"/>
      <point x="318" y="1471" type="curve" smooth="yes"/>
      <point x="223" y="1471"/>
      <point x="158" y="1403"/>
      <point x="158" y="1300" type="curve" smooth="yes"/>
      <point x="158" y="1207"/>
      <point x="230" y="1148"/>
      <point x="318" y="1148" type="curve" smooth="yes"/>
      <point x="360" y="1148"/>
      <point x="398" y="1167"/>
      <point x="430" y="1192" type="curve"/>
      <point x="329" y="1332" type="line"/>
      <point x="337" y="1152" type="line"/>
      <point x="337" y="1028"/>
      <point x="274" y="945"/>
      <point x="147" y="884" type="curve"/>
    </contour>
  </outline>
</glyph>
<glyph name="dagger" format="2">
  <advance width="1072"/>
  <unicode hex="2020"/>
  <outline>
    <contour>
      <point x="413" y="-168" type="line"/>
      <point x="658" y="-168" type="line"/>
      <point x="639" y="930" type="line"/>
      <point x="977" y="911" type="line"/>
      <point x="977" y="1156" type="line"/>
      <point x="639" y="1137" type="line"/>
      <point x="658" y="1503" type="line"/>
      <point x="413" y="1503" type="line"/>
      <point x="430" y="1137" type="line"/>
      <point x="92" y="1156" type="line"/>
      <point x="92" y="911" type="line"/>
      <point x="430" y="930" type="line"/>
    </contour>
  </outline>
</glyph>
<glyph name="guilsinglright" format="2">
  <advance width="614"/>
  <unicode hex="203A"/>
  <outline>
    <contour>
      <point x="227" y="118" type="line"/>
      <point x="512" y="424" type="line"/>
      <point x="512" y="639" type="line"/>
      <point x="227" y="945" type="line"/>
      <point x="113" y="852" type="line"/>
      <point x="348" y="531" type="line"/>
      <point x="113" y="211" type="line"/>
    </contour>
  </outline>
</glyph>
<glyph name="partialdiff" format="2">
  <advance width="1213"/>
  <unicode hex="2202"/>
  <outline>
    <contour>
      <point x="512" y="-25" type="curve" smooth="yes"/>
      <point x="865" y="-25"/>
      <point x="1114" y="299"/>
      <point x="1114" y="793" type="curve" smooth="yes"/>
      <point x="1114" y="1173"/>
      <point x="949" y="1401"/>
      <point x="624" y="1401" type="curve" smooth="yes"/>
      <point x="477" y="1401"/>
      <point x="354" y="1344"/>
      <point x="242" y="1247" type="curve"/>
      <point x="373" y="1059" type="line"/>
      <point x="439" y="1123"/>
      <point x="508" y="1156"/>
      <point x="591" y="1156" type="curve" smooth="yes"/>
      <point x="757" y="1156"/>
      <point x="825" y="1028"/>
      <point x="825" y="785" type="curve" smooth="yes"/>
      <point x="825" y="363"/>
      <point x="692" y="219"/>
      <point x="546" y="219" type="curve" smooth="yes"/>
      <point x="460" y="219"/>
      <point x="379" y="282"/>
      <point x="379" y="407" type="curve" smooth="yes"/>
      <point x="379" y="569"/>
      <point x="468" y="641"/>
      <point x="591" y="641" type="curve" smooth="yes"/>
      <point x="669" y="641"/>
      <point x="747" y="603"/>
      <point x="808" y="502" type="curve"/>
      <point x="844" y="717" type="line"/>
      <point x="772" y="816"/>
      <point x="664" y="873"/>
      <point x="553" y="873" type="curve" smooth="yes"/>
      <point x="289" y="873"/>
      <point x="101" y="679"/>
      <point x="101" y="390" type="curve" smooth="yes"/>
      <point x="101" y="135"/>
      <point x="289" y="-25"/>
    </contour>
  </outline>
</glyph>
<glyph name="product" format="2">
  <advance width="1494"/>
  <unicode hex="220F"/>
  <outline>
    <contour>
      <point x="168" y="-253" type="line"/>
      <point x="472" y="-253" type="line"/>
      <point x="472" y="1074" type="line"/>
      <point x="1019" y="1074" type="line"/>
      <point x="1019" y="-253" type="line"/>
      <point x="1325" y="-253" type="line"/>
      <point x="1325" y="1340" type="line"/>
      <point x="168" y="1340" type="line"/>
    </contour>
  </outline>
</glyph>
<glyph name="yad-tifi" format="2">
  <advance width="1422"/>
  <unicode hex="2D37"/>
  <anchor x="740" y="1393" name="T"/>
  <outline>
    <contour>
      <point x="835" y="1405"/>
      <point x="781" y="1405" type="curve" smooth="yes"/>
      <point x="731" y="1405"/>
      <point x="627" y="1376"/>
      <point x="565" y="1291" type="curve" smooth="yes"/>
      <point x="390" y="1051"/>
      <point x="90" y="328"/>
      <point x="90" y="57" type="curve" smooth="yes"/>
      <point x="90" y="5"/>
      <point x="130" y="-30"/>
      <point x="187" y="-30" type="curve" smooth="yes"/>
      <point x="226" y="-30"/>
      <point x="390" y="-1"/>
      <point x="406" y="114" type="curve" smooth="yes"/>
      <point x="448" y="418"/>
      <point x="608" y="859"/>
      <point x="825" y="1224" type="curve"/>
      <point x="590" y="1213" type="line"/>
      <point x="763" y="954"/>
      <point x="926" y="277"/>
      <point x="953" y="124" type="curve" smooth="yes"/>
      <point x="975" y="0"/>
      <point x="1035" y="-19"/>
      <point x="1143" y="-19" type="curve" smooth="yes"/>
      <point x="1230" y="-19"/>
      <point x="1332" y="25"/>
      <point x="1332" y="86" type="curve" smooth="yes"/>
      <point x="1332" y="137"/>
      <point x="1298" y="115"/>
      <point x="1266" y="257" type="curve" smooth="yes"/>
      <point x="1162" y="715"/>
      <point x="1070" y="1007"/>
      <point x="911" y="1307" type="curve" smooth="yes"/>
      <point x="872" y="1381"/>
    </contour>
  </outline>
</glyph>
<glyph name="yatt-tifi" format="2">
  <advance width="1287"/>
  <unicode hex="2D5F"/>
  <anchor x="670" y="1393" name="T"/>
  <outline>
    <component base="yam-tifi"/>
    <contour>
      <point x="760" y="380" type="curve" smooth="yes"/>
      <point x="841" y="380"/>
      <point x="917" y="447"/>
      <point x="917" y="568" type="curve" smooth="yes"/>
      <point x="917" y="705"/>
      <point x="908" y="725"/>
      <point x="908" y="808" type="curve" smooth="yes"/>
      <point x="908" y="950"/>
      <point x="915" y="909"/>
      <point x="915" y="955" type="curve" smooth="yes"/>
      <point x="915" y="1010"/>
      <point x="877" y="1031"/>
      <point x="827" y="1031" type="curve" smooth="yes"/>
      <point x="747" y="1031"/>
      <point x="670" y="964"/>
      <point x="670" y="843" type="curve" smooth="yes"/>
      <point x="670" y="706"/>
      <point x="679" y="706"/>
      <point x="679" y="623" type="curve" smooth="yes"/>
      <point x="679" y="461"/>
      <point x="672" y="502"/>
      <point x="672" y="456" type="curve" smooth="yes"/>
      <point x="672" y="401"/>
      <point x="710" y="380"/>
    </contour>
    <contour>
      <point x="1095" y="665" type="curve" smooth="yes"/>
      <point x="1095" y="734"/>
      <point x="1053" y="802"/>
      <point x="951" y="806" type="curve" smooth="yes"/>
      <point x="866" y="809"/>
      <point x="826" y="805"/>
      <point x="734" y="805" type="curve" smooth="yes"/>
      <point x="693" y="805"/>
      <point x="673" y="803"/>
      <point x="632" y="803" type="curve" smooth="yes"/>
      <point x="548" y="803"/>
      <point x="529" y="802"/>
      <point x="490" y="802" type="curve" smooth="yes"/>
      <point x="442" y="802"/>
      <point x="440" y="809"/>
      <point x="407" y="809" type="curve" smooth="yes"/>
      <point x="367" y="809"/>
      <point x="333" y="791"/>
      <point x="333" y="725" type="curve" smooth="yes"/>
      <point x="333" y="656"/>
      <point x="375" y="596"/>
      <point x="477" y="592" type="curve" smooth="yes"/>
      <point x="562" y="589"/>
      <point x="582" y="593"/>
      <point x="674" y="593" type="curve" smooth="yes"/>
      <point x="715" y="593"/>
      <point x="735" y="596"/>
      <point x="776" y="596" type="curve" smooth="yes"/>
      <point x="880" y="596"/>
      <point x="899" y="598"/>
      <point x="938" y="598" type="curve" smooth="yes"/>
      <point x="986" y="598"/>
      <point x="988" y="591"/>
      <point x="1021" y="591" type="curve" smooth="yes"/>
      <point x="1051" y="591"/>
      <point x="1095" y="599"/>
    </contour>
  </outline>
</glyph>
<glyph name="_PlusHorizontal" format="2">
  <advance width="1470"/>
  <outline>
    <contour>
      <point x="149" y="261" type="curve" smooth="yes"/>
      <point x="353" y="261"/>
      <point x="418" y="272"/>
      <point x="506" y="272" type="curve" smooth="yes"/>
      <point x="697" y="272"/>
      <point x="657" y="261"/>
      <point x="703" y="261" type="curve" smooth="yes"/>
      <point x="762" y="261"/>
      <point x="779" y="318"/>
      <point x="779" y="384" type="curve" smooth="yes"/>
      <point x="779" y="430"/>
      <point x="740" y="504"/>
      <point x="630" y="504" type="curve" smooth="yes"/>
      <point x="426" y="504"/>
      <point x="361" y="493"/>
      <point x="273" y="493" type="curve" smooth="yes"/>
      <point x="82" y="493"/>
      <point x="122" y="504"/>
      <point x="76" y="504" type="curve" smooth="yes"/>
      <point x="17" y="504"/>
      <point x="0" y="447"/>
      <point x="0" y="381" type="curve" smooth="yes"/>
      <point x="0" y="335"/>
      <point x="39" y="261"/>
    </contour>
  </outline>
</glyph>
<glyph name="_PlusMedium" format="2">
  <advance width="1470"/>
  <outline>
    <contour>
      <point x="326" y="0" type="curve" smooth="yes"/>
      <point x="417" y="0"/>
      <point x="463" y="67"/>
      <point x="463" y="178" type="curve" smooth="yes"/>
      <point x="463" y="315"/>
      <point x="454" y="333"/>
      <point x="454" y="416" type="curve" smooth="yes"/>
      <point x="454" y="578"/>
      <point x="461" y="545"/>
      <point x="461" y="584" type="curve" smooth="yes"/>
      <point x="461" y="639"/>
      <point x="413" y="651"/>
      <point x="363" y="651" type="curve" smooth="yes"/>
      <point x="272" y="651"/>
      <point x="226" y="584"/>
      <point x="226" y="473" type="curve" smooth="yes"/>
      <point x="226" y="336"/>
      <point x="235" y="331"/>
      <point x="235" y="248" type="curve" smooth="yes"/>
      <point x="235" y="86"/>
      <point x="228" y="106"/>
      <point x="228" y="67" type="curve" smooth="yes"/>
      <point x="228" y="12"/>
      <point x="276" y="0"/>
    </contour>
    <contour>
      <point x="133" y="225" type="curve" smooth="yes"/>
      <point x="253" y="225"/>
      <point x="325" y="234"/>
      <point x="436" y="234" type="curve" smooth="yes"/>
      <point x="568" y="234"/>
      <point x="564" y="225"/>
      <point x="603" y="225" type="curve" smooth="yes"/>
      <point x="658" y="225"/>
      <point x="672" y="270"/>
      <point x="672" y="300" type="curve" smooth="yes"/>
      <point x="672" y="382"/>
      <point x="631" y="428"/>
      <point x="539" y="428" type="curve" smooth="yes"/>
      <point x="419" y="428"/>
      <point x="347" y="419"/>
      <point x="236" y="419" type="curve" smooth="yes"/>
      <point x="124" y="419"/>
      <point x="108" y="428"/>
      <point x="69" y="428" type="curve" smooth="yes"/>
      <point x="24" y="428"/>
      <point x="0" y="403"/>
      <point x="0" y="353" type="curve" smooth="yes"/>
      <point x="0" y="271"/>
      <point x="41" y="225"/>
    </contour>
  </outline>
</glyph>
<glyph name="_PlusSmall" format="2">
  <advance width="1471"/>
  <outline>
    <contour>
      <point x="233" y="0" type="curve" smooth="yes"/>
      <point x="324" y="0"/>
      <point x="387" y="48"/>
      <point x="387" y="139" type="curve" smooth="yes"/>
      <point x="387" y="236"/>
      <point x="376" y="284"/>
      <point x="376" y="327" type="curve" smooth="yes"/>
      <point x="376" y="459"/>
      <point x="388" y="426"/>
      <point x="388" y="465" type="curve" smooth="yes"/>
      <point x="388" y="510"/>
      <point x="349" y="531"/>
      <point x="299" y="531" type="curve" smooth="yes"/>
      <point x="198" y="531"/>
      <point x="147" y="473"/>
      <point x="147" y="392" type="curve" smooth="yes"/>
      <point x="147" y="305"/>
      <point x="156" y="270"/>
      <point x="156" y="217" type="curve" smooth="yes"/>
      <point x="156" y="75"/>
      <point x="145" y="105"/>
      <point x="145" y="66" type="curve" smooth="yes"/>
      <point x="145" y="21"/>
      <point x="183" y="0"/>
    </contour>
    <contour>
      <point x="134" y="164" type="curve" smooth="yes"/>
      <point x="214" y="164"/>
      <point x="226" y="174"/>
      <point x="297" y="174" type="curve" smooth="yes"/>
      <point x="429" y="174"/>
      <point x="425" y="167"/>
      <point x="464" y="167" type="curve" smooth="yes"/>
      <point x="519" y="167"/>
      <point x="532" y="213"/>
      <point x="532" y="243" type="curve" smooth="yes"/>
      <point x="532" y="340"/>
      <point x="480" y="375"/>
      <point x="398" y="375" type="curve" smooth="yes"/>
      <point x="318" y="375"/>
      <point x="286" y="364"/>
      <point x="215" y="364" type="curve" smooth="yes"/>
      <point x="103" y="364"/>
      <point x="107" y="372"/>
      <point x="68" y="372" type="curve" smooth="yes"/>
      <point x="23" y="372"/>
      <point x="0" y="346"/>
      <point x="0" y="296" type="curve" smooth="yes"/>
      <point x="0" y="199"/>
      <point x="52" y="164"/>
    </contour>
  </outline>
</glyph>
<glyph name="dieresiscmb.cap" format="2">
  <anchor x="0" y="1422" name="_aboveUC"/>
  <outline>
    <contour>
      <point x="-232" y="1479" type="curve" smooth="yes"/>
      <point x="-147" y="1479"/>
      <point x="-86" y="1541"/>
      <point x="-86" y="1625" type="curve" smooth="yes"/>
      <point x="-86" y="1707"/>
      <point x="-147" y="1771"/>
      <point x="-232" y="1771" type="curve" smooth="yes"/>
      <point x="-318" y="1771"/>
      <point x="-377" y="1707"/>
      <point x="-377" y="1625" type="curve" smooth="yes"/>
      <point x="-377" y="1541"/>
      <point x="-318" y="1479"/>
    </contour>
    <contour>
      <point x="232" y="1479" type="curve" smooth="yes"/>
      <point x="318" y="1479"/>
      <point x="377" y="1541"/>
      <point x="377" y="1625" type="curve" smooth="yes"/>
      <point x="377" y="1707"/>
      <point x="318" y="1771"/>
      <point x="232" y="1771" type="curve" smooth="yes"/>
      <point x="147" y="1771"/>
      <point x="86" y="1707"/>
      <point x="86" y="1625" type="curve" smooth="yes"/>
      <point x="86" y="1541"/>
      <point x="147" y="1479"/>
    </contour>
  </outline>
</glyph>
<glyph name="tildecmb.cap" format="2">
  <anchor x="0" y="1422" name="_aboveUC"/>
  <outline>
    <contour>
      <point x="151" y="1462" type="curve" smooth="yes"/>
      <point x="295" y="1462"/>
      <point x="405" y="1553"/>
      <point x="415" y="1764" type="curve"/>
      <point x="219" y="1779" type="line"/>
      <point x="208" y="1701"/>
      <point x="181" y="1674"/>
      <point x="141" y="1674" type="curve" smooth="yes"/>
      <point x="69" y="1674"/>
      <point x="0" y="1796"/>
      <point x="-151" y="1796" type="curve" smooth="yes"/>
      <point x="-295" y="1796"/>
      <point x="-405" y="1705"/>
      <point x="-415" y="1494" type="curve"/>
      <point x="-219" y="1479" type="line"/>
      <point x="-211" y="1557"/>
      <point x="-181" y="1585"/>
      <point x="-141" y="1585" type="curve" smooth="yes"/>
      <point x="-69" y="1585"/>
      <point x="0" y="1462"/>
    </contour>
  </outline>
</glyph>
